<svg xmlns="http://www.w3.org/2000/svg" viewBox="0 0 150 32">
<path fill="#133C65" d="M36.4,21.3c0.1-0.2,0.3-0.6,0.4-0.7c0.1-0.2,0.5-0.3,0.8-0.1c0,0,1.3,1,2.8,1c1.2,0,1.9-0.6,1.9-1.4
	c0-1-0.9-1.5-2.6-2.4c-1.6-0.8-3.4-1.8-3.4-3.8c0-1.2,1-3.1,3.7-3.1c1.5,0,2.7,0.5,3.3,0.9c0.3,0.2,0.4,0.6,0.2,0.9l-0.2,0.5
	c-0.2,0.3-0.6,0.4-0.9,0.3c0,0-1.3-0.7-2.4-0.7c-1.3,0-1.7,0.7-1.7,1.2c0,1,1,1.4,2.2,2c2,1,3.9,1.9,3.9,4c0,1.7-1.6,3.3-4.1,3.3
	c-2,0-3.2-0.8-3.8-1.3C36.4,21.8,36.3,21.5,36.4,21.3 M46.5,11.7c0-0.3,0.3-0.6,0.6-0.6h0.6c0.3,0,0.4,0.1,0.5,0.4l0.3,0.9
	c0,0,1.4-1.6,3.8-1.6c1.7,0,3,0.7,3.8,1.9c0.1-0.1,2-1.9,4.4-1.9c3.4,0,4.6,2.2,4.6,5.3v6.2c0,0.3-0.3,0.6-0.6,0.6h-0.9
	c-0.3,0-0.6-0.3-0.6-0.6v-6.2c0-2.2-0.9-3.3-2.6-3.3c-1.9,0-3.2,1.3-3.6,1.6c0.1,0.5,0.1,1.1,0.1,1.7v6.2c0,0.3-0.3,0.6-0.6,0.6
	h-0.9c-0.3,0-0.6-0.3-0.6-0.6v-6.2c0-2.2-1-3.3-2.8-3.3c-2.1,0-3.4,1.7-3.4,1.7v7.9c0,0.3-0.3,0.6-0.6,0.6h-0.9
	c-0.3,0-0.6-0.3-0.6-0.6V11.7z M80.8,21.3c0.1-0.2,0.3-0.6,0.4-0.7c0.1-0.2,0.5-0.3,0.8-0.1c0,0,1.3,1,2.8,1c1.2,0,1.9-0.6,1.9-1.4
	c0-1-0.9-1.5-2.6-2.4c-1.6-0.7-3.3-1.8-3.3-3.8c0-1.2,1-3.1,3.7-3.1c1.5,0,2.7,0.5,3.3,0.9c0.3,0.2,0.4,0.6,0.2,0.9l-0.2,0.5
	c-0.2,0.3-0.6,0.4-0.9,0.3c0,0-1.3-0.7-2.4-0.7c-1.3,0-1.7,0.7-1.7,1.2c0,1,1,1.4,2.2,2c2,1,3.9,1.9,3.9,4c0,1.7-1.6,3.3-4.1,3.3
	c-2,0-3.2-0.8-3.8-1.3C80.8,21.8,80.7,21.5,80.8,21.3 M90.9,6.3c0-0.3,0.3-0.6,0.6-0.6h0.9C92.7,5.7,93,6,93,6.3v6.1
	c0,0,1.6-1.6,3.9-1.6c2.9,0,4.6,1.8,4.6,5.3v6.2c0,0.3-0.3,0.6-0.6,0.6H100c-0.3,0-0.6-0.3-0.6-0.6v-6.2c0-2.2-1-3.3-2.6-3.3
	c-2.2,0-3.8,1.6-3.8,1.6v7.9c0,0.3-0.3,0.6-0.6,0.6h-0.9c-0.3,0-0.6-0.3-0.6-0.6V6.3L90.9,6.3z M112.9,19.9
	c-0.1-0.1-0.3-0.2-0.4-0.1c-0.7,0.7-1.5,1.4-3,1.4c-2.2,0-3.9-1.9-3.9-4.2s1.7-4.2,3.9-4.2c1.2,0,2.1,0.6,2.7,1.2l0.1,0.1
	c0.2,0.2,0.5,0.1,0.6-0.1c0.1-0.4,0.3-0.7,0.5-1.1c0.1-0.2,0.1-0.4-0.1-0.5c-1-1.1-2.3-1.6-3.8-1.6c-3.2,0-6.1,2.7-6.1,6.2
	s2.8,6.2,6,6.2c1.6,0,3-0.7,3.9-1.7c0.1-0.1,0.1-0.3,0.1-0.4C113.2,20.8,113,20.3,112.9,19.9 M128.4,21.3c0.1-0.2,0.3-0.6,0.4-0.7
	c0.1-0.2,0.5-0.3,0.8-0.1c0,0,1.3,1,2.8,1c1.2,0,1.9-0.6,1.9-1.4c0-1-0.9-1.5-2.6-2.4c-1.6-0.8-3.4-1.8-3.4-3.8c0-1.2,1-3.1,3.7-3.1
	c1.5,0,2.7,0.5,3.3,0.9c0.3,0.2,0.4,0.6,0.2,0.9l-0.2,0.5c-0.2,0.3-0.6,0.4-0.9,0.3c0,0-1.3-0.7-2.4-0.7c-1.3,0-1.7,0.7-1.7,1.2
	c0,1,1,1.4,2.2,2c2,1,3.9,1.9,3.9,4c0,1.7-1.6,3.3-4.1,3.3c-2,0-3.2-0.8-3.8-1.3C128.4,21.8,128.3,21.5,128.4,21.3 M139.6,12.9h-1.5
	c-0.3,0-0.6-0.3-0.6-0.6v-0.7c0-0.3,0.3-0.6,0.6-0.6h1.5V7.9c0-0.3,0.3-0.6,0.6-0.6l0.9-0.1c0.3,0,0.5,0.3,0.5,0.6v3.3h3.4
	c0.3,0,0.6,0.3,0.6,0.6v0.7c0,0.3-0.2,0.6-0.6,0.6h-3.4v6.9c0,1.2,0.3,1.4,1,1.4s1.8-0.4,2.1-0.7c0.4-0.2,0.6-0.1,0.7,0.2l0.4,0.7
	c0.2,0.4,0.1,0.5-0.2,0.7c-0.4,0.3-2,1-3.4,1c-2.4,0-2.7-1.4-2.7-3.2L139.6,12.9L139.6,12.9z M73.1,10.9c-3.9,0-6.1,2.8-6.1,6.2
	c0,3.8,2.6,6.2,5.9,6.2l0,0c1.5,0,2.8-1.3,2.8-2.8l0,0c0-0.2-0.2-0.3-0.4-0.1c-0.6,0.7-1.3,1.1-2.5,1.1c-2.4,0-3.8-1.9-3.8-4.3
	c0-2.3,1.8-4.2,4.1-4.2c2.6,0,3.5,1.6,3.5,3.9l0,0v2.9c0,0,0,0.1,0,1.3c0,0.6,0.3,2.2,0.3,2.2l0,0c0.1,0.3,0.2,0.4,0.5,0.4H78l0,0
	c0.3,0,0.6-0.3,0.6-0.6v-3.4v-2.9C78.7,13.4,76.8,10.9,73.1,10.9 M120.7,10.9c-3.9,0-6.1,2.8-6.1,6.2c0,3.8,2.6,6.2,5.9,6.2l0,0
	c1.5,0,2.8-1.3,2.8-2.8l0,0c0-0.2-0.2-0.3-0.4-0.1c-0.6,0.7-1.3,1.1-2.5,1.1c-2.4,0-3.8-1.9-3.8-4.3c0-2.3,1.8-4.2,4.1-4.2
	c2.6,0,3.5,1.9,3.5,4.2v-0.3v2.6c0,0,0,0.4,0,1.6c0,0.6,0.3,2.2,0.3,2.2l0,0c0.1,0.3,0.2,0.4,0.5,0.4h0.6l0,0c0.3,0,0.6-0.3,0.6-0.6
	v-3.6v-2.6C126.3,13.7,124.4,10.9,120.7,10.9"/>
<path fill="#EB5055" d="M9.5,14.5c-0.2,0-0.4,0-0.6-0.1l-4-1.7c-0.8-0.3-1.1-1.2-0.8-2c0.3-0.8,1.2-1.1,2-0.8l4,1.7
	c0.8,0.3,1.1,1.2,0.8,2C10.7,14.1,10.1,14.5,9.5,14.5z M26.7,21.9c-0.2,0-0.4,0-0.6-0.1l-3.8-1.7c-0.8-0.3-1.1-1.2-0.8-2
	c0.3-0.8,1.2-1.1,2-0.8l3.8,1.7c0.8,0.3,1.1,1.2,0.8,2C27.8,21.6,27.3,21.9,26.7,21.9z M11.1,29.3c-0.2,0-0.4,0-0.6-0.1
	c-0.8-0.3-1.1-1.2-0.8-2l2.3-5.3c0.3-0.8,1.2-1.1,2-0.8c0.8,0.3,1.1,1.2,0.8,2l-2.3,5.3C12.2,28.9,11.6,29.3,11.1,29.3z M19.1,10.7
	c-0.2,0-0.4,0-0.6-0.1c-0.8-0.3-1.1-1.2-0.8-2l1-2.4c0.3-0.8,1.2-1.1,2-0.8c0.8,0.3,1.1,1.2,0.8,2l-1,2.4
	C20.2,10.3,19.7,10.7,19.1,10.7z"/>
<path fill="#208EFC" d="M21,29.4c-0.6,0-1.2-0.4-1.4-0.9l-2.1-5.3c-0.3-0.8,0.1-1.6,0.8-2c0.8-0.3,1.6,0.1,2,0.8l2.1,5.3
	c0.3,0.8-0.1,1.6-0.8,2C21.4,29.4,21.2,29.4,21,29.4z M22.9,14.6c-0.6,0-1.2-0.4-1.4-0.9c-0.3-0.8,0.1-1.6,0.8-2l5.3-2.1
	c0.8-0.3,1.6,0.1,2,0.8c0.3,0.8-0.1,1.6-0.8,2l-5.3,2.1C23.3,14.6,23.1,14.6,22.9,14.6z M13.5,10.6c-0.6,0-1.2-0.4-1.4-0.9L10,4.4
	c-0.3-0.8,0.1-1.6,0.8-2c0.8-0.3,1.6,0.1,2,0.8l2.1,5.3c0.3,0.8-0.1,1.6-0.8,2C13.9,10.6,13.7,10.6,13.5,10.6z M5.9,21.4
	c-0.6,0-1.2-0.4-1.4-0.9c-0.3-0.8,0.1-1.6,0.8-2l3.5-1.4c0.8-0.3,1.7,0.1,2,0.8c0.3,0.8-0.1,1.6-0.8,2l-3.5,1.4
	C6.3,21.4,6.1,21.4,5.9,21.4z"/>
</svg>
